# xmcd
#
# Track frame offsets:
#	150
#	14564
#	30481
#	46585
#	68750
#
# Disc length: 1210 seconds
#
# Revision: 0
# Processed by: cddbd v1.5PL3 Copyright (c) Steve Scherf et al.
# Submitted via: dBpowerAMP V4.0
#
DISCID=3304b805
DTITLE=Eva Gold - Extraction
DYEAR=1900
DGENRE=Blues
TTITLE0=Dust
TTITLE1=High School Confidential
TTITLE2=Grab It
TTITLE3=Story
TTITLE4=Hidden Track
EXTD=Blues
EXTT0=
EXTT1=
EXTT2=
EXTT3=
EXTT4=
PLAYORDER=
